<?xml version="1.0" encoding="UTF-8"?>
<svg id="Camada_1" xmlns="http://www.w3.org/2000/svg" version="1.1" viewBox="0 0 1080 1080">
  <!-- Generator: Adobe Illustrator 30.2.1, SVG Export Plug-In . SVG Version: 2.1.1 Build 1)  -->
  <defs>
    <style>
      .st0 {
        fill: #0798d4;
      }
    </style>
  </defs>
  <path class="st0" d="M188.11,609.07c1.96,1.96,4.08,3.81,6.36,5.52,26.41,19.91,63.97,14.64,83.88-11.78,9.18-12.18,19.35-23.87,30.23-34.75,127.51-127.51,334.98-127.51,462.48,0,11.34,11.34,21.91,23.56,31.4,36.32,19.73,26.55,57.27,32.03,83.8,12.28,26.53-19.75,32.03-57.27,12.28-83.8-12.95-17.4-27.35-34.05-42.79-49.49-174.21-174.21-457.67-174.21-631.88,0-14.81,14.81-28.66,30.73-41.18,47.35-18.19,24.13-15.36,57.57,5.42,78.35Z"/>
  <path class="st0" d="M39.26,463.25c1.33,1.33,2.73,2.61,4.21,3.83,25.48,21.09,63.23,17.54,84.33-7.94,10.75-12.98,22.27-25.64,34.24-37.61,208.31-208.31,547.26-208.31,755.57,0,12.12,12.12,23.74,24.9,34.57,38,21.09,25.5,58.82,29.09,84.32,8.03,25.5-21.07,29.1-58.82,8.03-84.32-13.23-16.01-27.43-31.62-42.21-46.41-255.02-255.02-669.95-255.02-924.97,0-14.61,14.61-28.68,30.06-41.81,45.92-19.87,24-17.87,58.9,3.73,80.49Z"/>
  <path class="st0" d="M334.12,755.9c4.17,4.17,9.03,7.78,14.52,10.67,29.28,15.38,65.49,4.12,80.87-25.16,5.81-11.05,13.29-21.19,22.25-30.15,48.56-48.56,127.56-48.56,176.12,0,9.2,9.2,16.85,19.66,22.73,31.08,15.13,29.41,51.26,40.97,80.67,25.83,29.41-15.14,40.97-51.26,25.83-80.67-11.56-22.46-26.55-42.96-44.53-60.94-95.26-95.26-250.26-95.26-345.52,0-17.5,17.5-32.16,37.39-43.58,59.13-12.5,23.79-7.41,52.15,10.64,70.2Z"/>
  <circle class="st0" cx="538.3" cy="861.36" r="73.07"/>
</svg>