<svg width="3017" height="1228" viewBox="0 0 3017 1228" fill="none" xmlns="http://www.w3.org/2000/svg">
<path d="M744 604L744 400.499C744 347.204 787.205 303.999 840.5 303.999C893.795 303.999 937 347.204 937 400.499L937 411.249L937 604" stroke="#326DF5" stroke-width="10" stroke-miterlimit="10" stroke-linecap="round" stroke-linejoin="round"/>
<path d="M937 771V1086.5C937 1113.29 958.714 1135 985.5 1135C1012.29 1135 1034 1113.29 1034 1086.5V951C1034 923.386 1056.39 901 1084 901H1187" stroke="#00B8E0" stroke-width="10" stroke-miterlimit="10" stroke-linecap="round" stroke-linejoin="round"/>
<path d="M889 640V996C889 1022.79 910.714 1044.5 937.5 1044.5C964.286 1044.5 986 1022.79 986 996V952C986 896.772 1030.77 852 1086 852H1108.5" stroke="#326DF5" stroke-width="36" stroke-miterlimit="10" stroke-linecap="round" stroke-linejoin="round"/>
<path d="M1231.5 512H1034C1020.75 512 1010 522.745 1010 536C1010 549.255 1020.75 560 1034 560H1204" stroke="#00B8E0" stroke-width="36" stroke-miterlimit="10" stroke-linecap="round" stroke-linejoin="round"/>
<path d="M937 771V493" stroke="#00B8E0" stroke-width="36" stroke-miterlimit="10" stroke-linecap="round" stroke-linejoin="round"/>
<path d="M501 413L501 379C501 365.469 490.031 354.5 476.5 354.5C462.969 354.5 452 365.469 452 379L452 406.812L452 660.5" stroke="#326DF5" stroke-width="36" stroke-miterlimit="10" stroke-linecap="round" stroke-linejoin="round"/>
<path d="M793.097 692.75L793.097 729.951C793.097 824.143 716.74 900.5 622.549 900.5C528.357 900.5 452 824.143 452 729.951L452 660.5" stroke="#326DF5" stroke-width="10" stroke-miterlimit="10" stroke-linecap="round" stroke-linejoin="round"/>
<path d="M501.049 401L501.049 637.49L501.049 731.5C501.049 798.603 555.446 853 622.549 853C689.651 853 744.049 798.603 744.049 731.5L744.049 565.625" stroke="#326DF5" stroke-width="36" stroke-miterlimit="10" stroke-linecap="round" stroke-linejoin="round"/>
<path d="M793.097 695.5L793.097 401.951C793.097 375.468 814.566 354 841.049 354C867.531 354 889 375.468 889 401.951L889 635" stroke="#326DF5" stroke-width="36" stroke-miterlimit="10" stroke-linecap="round" stroke-linejoin="round"/>
<path d="M888.999 747.5L889 914" stroke="#326DF5" stroke-width="36" stroke-miterlimit="10" stroke-linecap="round" stroke-linejoin="round"/>
<path d="M841 402V729.3C841 850.093 742.958 948 622 948C501.042 948 403 850.093 403 729.3V402" stroke="#00B8E0" stroke-width="36" stroke-miterlimit="10" stroke-linecap="round" stroke-linejoin="round"/>
<path d="M2710.73 801.986C2710.73 803.908 2710.02 805.558 2708.62 806.935C2707.21 808.312 2705.53 809 2703.57 809C2701.61 809 2699.92 808.312 2698.52 806.935C2697.11 805.558 2696.41 803.908 2696.41 801.986C2696.41 800.063 2697.11 798.413 2698.52 797.036C2699.92 795.66 2701.61 794.971 2703.57 794.971C2704.87 794.971 2706.06 795.296 2707.15 795.945C2708.23 796.569 2709.11 797.413 2709.77 798.478C2710.41 799.517 2710.73 800.687 2710.73 801.986Z" fill="#00B8E0"/>
<path d="M2673.98 778.989L2710.73 778.989L2710.73 788.186L2649.64 788.186L2649.64 779.301L2659.18 779.301L2659.18 778.521C2656.08 777.118 2653.59 774.988 2651.7 772.13C2649.8 769.272 2648.84 765.583 2648.84 761.063C2648.84 757.01 2649.69 753.464 2651.39 750.424C2653.06 747.385 2655.6 745.021 2659.02 743.332C2662.42 741.643 2666.71 740.799 2671.91 740.799L2710.73 740.799L2710.73 749.996L2672.55 749.996C2667.75 749.996 2664.01 751.217 2661.33 753.659C2658.62 756.101 2657.27 759.452 2657.27 763.713C2657.27 766.648 2657.92 769.272 2659.22 771.585C2660.52 773.871 2662.42 775.676 2664.91 777.001C2667.4 778.326 2670.42 778.989 2673.98 778.989Z" fill="#00B8E0"/>
<path d="M2712 698.897C2712 704.665 2710.7 709.64 2708.1 713.822C2705.48 717.979 2701.82 721.188 2697.13 723.448C2692.41 725.682 2686.92 726.799 2680.66 726.799C2674.4 726.799 2668.89 725.682 2664.11 723.448C2659.31 721.188 2655.58 718.044 2652.9 714.017C2650.19 709.964 2648.84 705.236 2648.84 699.832C2648.84 696.715 2649.37 693.636 2650.43 690.597C2651.49 687.557 2653.22 684.79 2655.6 682.296C2657.96 679.802 2661.09 677.815 2664.99 676.334C2668.89 674.853 2673.69 674.113 2679.39 674.113L2683.36 674.113L2683.36 720.252L2675.25 720.252L2675.25 683.465C2671.8 683.465 2668.73 684.141 2666.02 685.492C2663.32 686.817 2661.18 688.713 2659.62 691.181C2658.05 693.623 2657.27 696.507 2657.27 699.832C2657.27 703.495 2658.2 706.665 2660.06 709.341C2661.89 711.991 2664.27 714.03 2667.22 715.459C2670.16 716.888 2673.31 717.602 2676.68 717.602L2682.09 717.602C2686.7 717.602 2690.62 716.823 2693.82 715.264C2697.01 713.679 2699.43 711.484 2701.1 708.678C2702.75 705.873 2703.57 702.612 2703.57 698.897C2703.57 696.481 2703.22 694.299 2702.53 692.35C2701.82 690.376 2700.76 688.674 2699.35 687.245C2697.92 685.816 2696.14 684.712 2694.02 683.933L2696.57 675.048C2699.64 675.983 2702.35 677.555 2704.68 679.763C2706.99 681.971 2708.79 684.699 2710.09 687.947C2711.36 691.194 2712 694.844 2712 698.897Z" fill="#00B8E0"/>
<path d="M2649.64 634.091L2657.59 634.091L2657.59 665.111L2649.64 665.111L2649.64 634.091ZM2635 656.07L2635 646.873L2693.23 646.873C2695.88 646.873 2697.87 646.496 2699.19 645.743C2700.49 644.964 2701.37 643.976 2701.82 642.781C2702.24 641.56 2702.45 640.274 2702.45 638.923C2702.45 637.91 2702.4 637.079 2702.3 636.429C2702.16 635.78 2702.06 635.26 2701.98 634.871L2710.41 633C2710.65 633.624 2710.89 634.494 2711.13 635.611C2711.39 636.728 2711.52 638.144 2711.52 639.859C2711.52 642.457 2710.95 645.003 2709.81 647.497C2708.67 649.965 2706.94 652.017 2704.6 653.654C2702.27 655.264 2699.33 656.07 2695.77 656.07L2635 656.07Z" fill="#00B8E0"/>
<path d="M1642 633V661.47H1595.12V809H1559.88V661.47H1513V633H1642Z" fill="#326DF5"/>
<path d="M1698.92 661.707V705.796H1755.78V733.723H1698.92V780.293H1763V809H1665V633H1763V661.707H1698.92Z" fill="#326DF5"/>
<path d="M1831.39 781.027H1883V809H1800V633H1831.39V781.027Z" fill="#326DF5"/>
<path d="M1940.61 661.707V705.796H1998.63V733.723H1940.61V780.293H2006V809H1906V633H2006V661.707H1940.61Z" fill="#326DF5"/>
<path d="M2039.38 675.61C2046.96 662.194 2057.3 651.768 2070.47 644.261C2083.64 636.754 2098.33 633 2114.67 633C2133.77 633 2150.53 637.935 2164.87 647.806C2179.21 657.676 2189.28 671.37 2195 688.817H2155.56C2151.63 680.615 2146.11 674.428 2139.01 670.327C2131.91 666.226 2123.7 664.141 2114.4 664.141C2104.47 664.141 2095.57 666.504 2087.85 671.161C2080.06 675.888 2074.06 682.491 2069.72 691.041C2065.37 699.591 2063.23 709.67 2063.23 721.139C2063.23 732.469 2065.37 742.479 2069.72 751.167C2074.06 759.787 2080.06 766.46 2087.85 771.186C2095.57 775.844 2104.47 778.207 2114.4 778.207C2123.7 778.207 2131.91 776.122 2139.01 771.882C2146.11 767.711 2151.63 761.455 2155.56 753.253H2195C2189.28 770.839 2179.28 784.602 2165.01 794.333C2150.73 804.134 2133.91 809 2114.67 809C2098.33 809 2083.57 805.246 2070.47 797.739C2057.3 790.232 2046.96 779.806 2039.38 766.529C2031.79 753.183 2028 738.03 2028 721.07C2028 704.248 2031.79 689.095 2039.38 675.61Z" fill="#326DF5"/>
<path d="M2268.11 797.701C2254.59 790.145 2243.86 779.678 2235.92 766.3C2227.97 752.921 2224 737.81 2224 720.896C2224 704.121 2227.97 689.079 2235.92 675.7C2243.86 662.322 2254.59 651.855 2268.11 644.299C2281.63 636.743 2296.47 633 2312.64 633C2328.95 633 2343.86 636.812 2357.31 644.299C2370.76 651.855 2381.42 662.322 2389.22 675.7C2397.03 689.079 2401 704.121 2401 720.896C2401 737.81 2397.1 752.921 2389.22 766.3C2381.35 779.678 2370.69 790.145 2357.17 797.701C2343.65 805.257 2328.81 809 2312.64 809C2296.54 809 2281.63 805.257 2268.11 797.701ZM2340.16 771.221C2348.11 766.577 2354.24 759.853 2358.7 751.188C2363.16 742.523 2365.39 732.403 2365.39 720.896C2365.39 709.389 2363.16 699.338 2358.7 690.742C2354.24 682.147 2348.04 675.492 2340.16 670.917C2332.22 666.342 2323.09 663.985 2312.71 663.985C2302.33 663.985 2293.13 666.273 2285.11 670.917C2277.1 675.492 2270.9 682.147 2266.44 690.742C2261.98 699.338 2259.75 709.389 2259.75 720.896C2259.75 732.403 2261.98 742.454 2266.44 751.188C2270.9 759.922 2277.1 766.577 2285.11 771.221C2293.13 775.935 2302.33 778.222 2312.71 778.222C2323.09 778.222 2332.22 775.866 2340.16 771.221Z" fill="#326DF5"/>
<path d="M2610 633V809H2575.25V694.483L2528.82 809H2502.46L2455.75 694.483V809H2421V633H2460.51L2515.67 763.917L2570.84 633H2610Z" fill="#326DF5"/>
<rect x="1108" y="504" width="9" height="12" fill="#D9D9D9"/>
<rect x="1195" y="923" width="9" height="12" fill="#D9D9D9"/>
<rect x="1195" y="1022" width="9" height="12" transform="rotate(90 1195 1022)" fill="#D9D9D9"/>
<rect x="1404" y="721" width="9" height="12" transform="rotate(90 1404 721)" fill="#D9D9D9"/>
<path d="M1206.75 559.951L1243.95 559.951C1338.14 559.951 1414.5 636.309 1414.5 730.5C1414.5 824.691 1338.14 901.049 1243.95 901.049L1168 901.049" stroke="#00B8E0" stroke-width="36" stroke-miterlimit="10" stroke-linecap="round" stroke-linejoin="round"/>
<path d="M1212.7 512L1243.5 512C1364.17 512 1462 609.826 1462 730.5C1462 851.174 1364.17 949 1243.5 949L1174 949" stroke="#00B8E0" stroke-width="36" stroke-miterlimit="10" stroke-linecap="round" stroke-linejoin="round"/>
<path d="M1237 852L1107 852" stroke="#00B8E0" stroke-width="36" stroke-miterlimit="10" stroke-linecap="round" stroke-linejoin="round"/>
<path d="M1079.62 609L1245.5 609C1312.6 609 1367 663.397 1367 730.5C1367 797.603 1312.6 852 1245.5 852L1237 852" stroke="#00B8E0" stroke-width="36" stroke-miterlimit="10" stroke-linecap="round" stroke-linejoin="round"/>
</svg>
