<?xml version="1.0" encoding="UTF-8"?>
<svg id="Camada_1" xmlns="http://www.w3.org/2000/svg" version="1.1" viewBox="0 0 1080 1080">
  <!-- Generator: Adobe Illustrator 30.2.1, SVG Export Plug-In . SVG Version: 2.1.1 Build 1)  -->
  <defs>
    <style>
      .st0 {
        fill: #0798d4;
      }
    </style>
  </defs>
  <path class="st0" d="M433.99,443.77c-14.45,0-26.17,11.72-26.17,26.17v70.23c0,52.55-42.76,95.31-95.31,95.31-52.55,0-95.31-42.76-95.31-95.31v-70.94c0-14.45-11.72-26.17-26.17-26.17s-26.17,11.72-26.17,26.17v70.94c0,81.42,66.24,147.66,147.65,147.66,81.42,0,147.65-66.24,147.65-147.66v-70.23c0-14.45-11.72-26.17-26.17-26.17Z"/>
  <g>
    <g>
      <path class="st0" d="M568.02,618.62h1.1v9.6h5.59v1.1h-5.59v26.14h-1.1s0-26.14,0-26.14h-5.59v-1.1h5.59v-9.6Z"/>
      <polygon class="st0" points="571.59 657.93 565.55 657.93 565.55 631.79 559.96 631.79 559.96 625.75 565.55 625.75 565.55 616.15 571.59 616.15 571.59 625.75 577.18 625.75 577.18 631.79 571.59 631.79 571.59 657.93"/>
    </g>
    <g>
      <path class="st0" d="M599.57,627.59c2.92,0,5.56.81,7.94,2.44,2.38,1.63,4.11,3.75,5.18,6.34.52,1.25.83,2.55.96,3.9.05.32.03.51-.05.57-.09.06-.32.09-.72.09h-26.32c-.03.27-.04.54-.04.81,0,1.08.14,2.15.41,3.2v.11c.76,2.84,2.31,5.18,4.65,7,2.34,1.83,5.01,2.74,8,2.74,2.4,0,4.61-.59,6.62-1.78,2.01-1.19,3.58-2.78,4.71-4.76l.63,1.07c-1.27,2.04-2.97,3.64-5.07,4.82-2.11,1.18-4.4,1.77-6.87,1.77-3.26,0-6.17-1-8.71-3.01-2.55-2.01-4.22-4.56-5-7.65,0-.02,0-.05-.02-.07-.01-.02-.02-.05-.02-.07-.27-1.08-.41-2.19-.41-3.35,0-2.55.63-4.91,1.89-7.1,1.26-2.18,2.98-3.9,5.17-5.17,2.18-1.26,4.55-1.89,7.1-1.89ZM599.57,628.69c-3.26,0-6.11,1.06-8.55,3.2-2.44,2.13-3.89,4.78-4.36,7.94h25.85c-.2-1.2-.54-2.35-1.03-3.46-1.03-2.3-2.62-4.16-4.76-5.57-2.15-1.41-4.53-2.11-7.15-2.11Z"/>
      <path class="st0" d="M599.57,658.37c-3.81,0-7.26-1.19-10.24-3.54-2.97-2.34-4.94-5.36-5.86-8.97-.03-.09-.05-.17-.07-.26v-.05c-.31-1.23-.46-2.5-.46-3.8,0-2.98.75-5.78,2.23-8.33,1.47-2.55,3.52-4.59,6.07-6.07,2.55-1.48,5.35-2.22,8.33-2.22,3.41,0,6.55.97,9.34,2.88,2.77,1.9,4.81,4.4,6.07,7.43.6,1.46.98,2.99,1.13,4.55.23,1.68-.58,2.52-1.09,2.88-.66.48-1.42.54-2.14.54h-1.96l3.49,5.95-.8,1.27c-1.49,2.38-3.5,4.28-5.96,5.66-2.47,1.38-5.19,2.08-8.08,2.08ZM589.39,644.72c.65,2.19,1.86,3.96,3.7,5.4,1.91,1.49,4.03,2.22,6.48,2.22,1.97,0,3.72-.47,5.36-1.44,1.65-.98,2.9-2.24,3.82-3.86l2.06-3.63h-21.68c.05.31.12.62.19.92l.08.38ZM615.41,642.3h.01s-.01,0-.01,0ZM589.91,637.36h19.3c-.84-1.87-2.1-3.34-3.85-4.49-1.75-1.15-3.64-1.71-5.79-1.71-2.67,0-4.93.85-6.92,2.59-1.22,1.06-2.12,2.26-2.73,3.61Z"/>
    </g>
    <g>
      <path class="st0" d="M624.5,618.69h1.1v36.77s-1.1,0-1.1,0v-36.77Z"/>
      <rect class="st0" x="622.03" y="616.22" width="6.04" height="41.71"/>
    </g>
    <g>
      <path class="st0" d="M650.56,627.59c2.92,0,5.56.81,7.94,2.44,2.38,1.63,4.11,3.75,5.18,6.34.52,1.25.83,2.55.96,3.9.05.32.03.51-.05.57-.09.06-.32.09-.72.09h-.26s-26.07,0-26.07,0c-.03.27-.04.54-.04.81,0,1.08.14,2.15.41,3.2v.11c.76,2.84,2.31,5.18,4.65,7,2.34,1.83,5.01,2.74,8,2.74,2.4,0,4.61-.59,6.62-1.78,2.01-1.19,3.58-2.78,4.71-4.76l.63,1.07c-1.27,2.04-2.97,3.64-5.07,4.82-2.11,1.18-4.4,1.77-6.87,1.77-3.26,0-6.17-1-8.71-3.01-2.55-2.01-4.22-4.56-5-7.65,0-.02,0-.05-.02-.07-.01-.02-.02-.05-.02-.07-.27-1.08-.41-2.19-.41-3.35,0-2.55.63-4.91,1.89-7.1,1.26-2.18,2.98-3.9,5.17-5.17,2.18-1.26,4.55-1.89,7.1-1.89ZM650.56,628.69c-3.26,0-6.11,1.06-8.55,3.2-2.44,2.13-3.89,4.78-4.36,7.94h25.85c-.2-1.2-.54-2.35-1.03-3.46-1.03-2.3-2.62-4.16-4.76-5.57-2.15-1.41-4.53-2.11-7.15-2.11Z"/>
      <path class="st0" d="M650.56,658.37c-3.81,0-7.26-1.19-10.24-3.54-2.96-2.34-4.93-5.34-5.85-8.93-.03-.1-.06-.21-.08-.31v-.04c-.3-1.23-.45-2.5-.45-3.8,0-2.98.75-5.78,2.23-8.33,1.47-2.55,3.52-4.59,6.07-6.07,2.55-1.48,5.35-2.22,8.33-2.22,3.41,0,6.55.97,9.34,2.88,2.77,1.9,4.81,4.4,6.07,7.43.6,1.45.98,2.99,1.13,4.56.22,1.68-.58,2.52-1.09,2.88-.66.48-1.42.54-2.14.54h-1.96s3.49,5.95,3.49,5.95l-.79,1.27c-1.49,2.38-3.5,4.28-5.96,5.66-2.47,1.38-5.19,2.08-8.08,2.08ZM640.38,644.72c.65,2.19,1.86,3.96,3.7,5.4,1.91,1.49,4.03,2.22,6.48,2.22,1.97,0,3.72-.47,5.36-1.44,1.65-.98,2.9-2.24,3.82-3.86l2.06-3.63h-21.68c.05.31.11.62.19.92l.08.38ZM666.41,642.3h.01-.01ZM640.91,637.36h19.3c-.84-1.87-2.1-3.34-3.86-4.49-1.75-1.15-3.64-1.71-5.79-1.71-2.67,0-4.93.85-6.92,2.59-1.22,1.06-2.12,2.26-2.73,3.61Z"/>
    </g>
    <g>
      <path class="st0" d="M689.57,627.59c2.5,0,4.82.61,6.95,1.82,2.13,1.21,3.84,2.84,5.11,4.87l-.66,1.1c-1.13-2.04-2.7-3.66-4.72-4.87-2.02-1.21-4.25-1.82-6.67-1.82-2.35,0-4.54.58-6.54,1.75-2.01,1.17-3.6,2.75-4.76,4.76-1.16,2.01-1.75,4.2-1.75,6.56s.58,4.55,1.75,6.54c1.16,2,2.75,3.58,4.76,4.74,2.01,1.17,4.19,1.75,6.54,1.75s4.66-.61,6.69-1.84c2.03-1.23,3.62-2.85,4.74-4.89l.62,1.1c-1.25,2.06-2.95,3.7-5.09,4.91-2.15,1.21-4.47,1.82-6.97,1.82s-4.92-.63-7.1-1.89c-2.18-1.26-3.9-2.98-5.17-5.15-1.26-2.17-1.89-4.53-1.89-7.1,0-2.56.63-4.93,1.89-7.11,1.26-2.18,2.98-3.9,5.17-5.17,2.18-1.26,4.55-1.89,7.1-1.89Z"/>
      <path class="st0" d="M689.57,658.37c-2.98,0-5.79-.75-8.33-2.23-2.54-1.47-4.58-3.5-6.06-6.04-1.48-2.54-2.23-5.35-2.23-8.34s.75-5.8,2.23-8.35c1.48-2.55,3.52-4.59,6.07-6.07,2.55-1.48,5.35-2.22,8.33-2.22s5.67.72,8.17,2.14c2.49,1.42,4.5,3.34,5.98,5.71l.8,1.28-3.64,6.08-2.08-3.75c-.92-1.66-2.17-2.95-3.84-3.95-1.64-.99-3.41-1.47-5.4-1.47-1.93,0-3.67.46-5.31,1.41-1.65.96-2.91,2.22-3.86,3.86-.95,1.64-1.41,3.38-1.41,5.33,0,1.94.46,3.67,1.41,5.3.95,1.64,2.22,2.89,3.86,3.85,1.64.95,3.38,1.42,5.31,1.42s3.76-.49,5.42-1.48c1.67-1.01,2.94-2.31,3.86-3.97l2.14-3.86,3.51,6.21-.75,1.24c-1.46,2.41-3.48,4.36-5.99,5.78-2.51,1.42-5.26,2.14-8.18,2.14Z"/>
    </g>
    <g>
      <path class="st0" d="M719.39,629.5c2.18-1.28,4.55-1.91,7.11-1.91,2.56,0,4.93.63,7.1,1.89,2.17,1.26,3.88,2.98,5.15,5.17,1.26,2.18,1.89,4.55,1.89,7.11,0,2.56-.63,4.93-1.89,7.1-1.26,2.17-2.98,3.89-5.15,5.15-2.17,1.26-4.53,1.89-7.1,1.89s-4.93-.63-7.11-1.89c-2.18-1.26-3.9-2.98-5.17-5.15-1.26-2.17-1.89-4.53-1.89-7.1s.63-4.93,1.89-7.11c1.26-2.18,2.98-3.9,5.17-5.15ZM733.03,630.46c-1.99-1.18-4.16-1.76-6.53-1.76s-4.55.58-6.56,1.75c-2.01,1.17-3.6,2.75-4.76,4.76-1.16,2.01-1.75,4.2-1.75,6.56s.58,4.55,1.75,6.54c1.16,2,2.75,3.58,4.76,4.74,2.01,1.17,4.2,1.75,6.56,1.75s4.55-.58,6.54-1.75c2-1.16,3.58-2.74,4.74-4.74,1.16-2,1.75-4.18,1.75-6.54s-.58-4.55-1.75-6.56c-1.16-2.01-2.75-3.59-4.76-4.74Z"/>
      <path class="st0" d="M726.5,658.37c-2.99,0-5.8-.75-8.35-2.23-2.55-1.47-4.59-3.5-6.06-6.04-1.48-2.54-2.23-5.34-2.23-8.34,0-2.99.75-5.8,2.23-8.35,1.47-2.55,3.52-4.58,6.07-6.05,2.55-1.49,5.36-2.24,8.35-2.24,2.99,0,5.8.75,8.34,2.23,2.54,1.48,4.57,3.52,6.04,6.06,1.48,2.55,2.22,5.36,2.22,8.35,0,2.99-.75,5.79-2.23,8.34-1.47,2.54-3.51,4.57-6.04,6.04-2.54,1.48-5.34,2.23-8.34,2.23ZM726.5,631.16c-1.94,0-3.68.46-5.33,1.41-1.64.96-2.91,2.22-3.86,3.86-.95,1.64-1.41,3.39-1.41,5.33,0,1.94.46,3.67,1.41,5.3.95,1.64,2.22,2.89,3.86,3.85,1.64.95,3.38,1.42,5.33,1.42s3.67-.46,5.3-1.41c1.64-.95,2.9-2.21,3.85-3.85.95-1.63,1.41-3.36,1.41-5.3s-.46-3.68-1.41-5.33c-.95-1.64-2.21-2.9-3.85-3.84l-.03-.02c-1.61-.96-3.34-1.42-5.27-1.42Z"/>
    </g>
    <g>
      <path class="st0" d="M762.74,627.55c1.1,0,2.17.17,3.2.52,1.71.59,3.14,1.56,4.26,2.9.78.96,1.4,2.05,1.84,3.27.71-1.47,1.67-2.73,2.87-3.79,1.69-1.47,3.64-2.39,5.85-2.76.64-.1,1.27-.15,1.91-.15,1.13,0,2.19.17,3.2.52,1.71.59,3.14,1.56,4.26,2.9,1.1,1.3,1.85,2.84,2.24,4.63.27,1.18.41,2.86.41,5.04v14.82h-1.1v-14.82c0-2.08-.12-3.68-.37-4.78-.37-1.62-1.03-3-1.99-4.15-1.03-1.23-2.29-2.08-3.79-2.57-1.47-.49-3-.61-4.6-.37-2.01.34-3.77,1.18-5.29,2.5-1.47,1.3-2.51,2.89-3.12,4.78.2,1.08.29,2.61.29,4.6v14.82h-1.1v-14.82c0-2.08-.11-3.68-.33-4.78-.37-1.64-1.04-3.03-2.02-4.15-1.01-1.23-2.25-2.08-3.75-2.57-1.47-.49-3-.61-4.6-.37-2.01.34-3.77,1.18-5.29,2.5-1.47,1.3-2.51,2.88-3.12,4.74v19.45h-1.1v-27.21h1.1v5.07c.66-1.08,1.46-2.03,2.39-2.87,1.69-1.47,3.64-2.39,5.85-2.76.64-.1,1.27-.15,1.91-.15Z"/>
      <path class="st0" d="M795.25,657.93h-6.04v-17.29c0-2.35-.17-3.61-.31-4.25-.28-1.23-.76-2.25-1.47-3.11-.72-.86-1.6-1.46-2.66-1.8-1.11-.37-2.24-.46-3.45-.27-1.53.26-2.87.89-4.05,1.92-.99.88-1.72,1.92-2.21,3.16.15,1.14.23,2.57.23,4.36v17.29h-6.04v-17.29c0-2.38-.15-3.65-.28-4.3-.27-1.19-.75-2.19-1.47-3.02-.75-.92-1.61-1.5-2.65-1.85-1.12-.37-2.24-.46-3.45-.27-1.53.26-2.87.89-4.05,1.92-1.04.92-1.79,2.01-2.28,3.3v21.5h-6.04v-32.15h6.04v1.54c1.63-1.05,3.42-1.73,5.36-2.05,2.22-.34,4.31-.2,6.3.46,2.16.74,3.96,1.97,5.38,3.66.06.07.11.14.16.2.32-.35.66-.68,1.02-.99,2.04-1.78,4.42-2.9,7.07-3.34,2.26-.34,4.37-.2,6.31.47,2.14.73,3.95,1.96,5.36,3.66,1.35,1.59,2.28,3.51,2.76,5.69.31,1.35.46,3.18.46,5.57v17.29Z"/>
    </g>
  </g>
  <g>
    <path class="st0" d="M756.35,542.13c-1.67.27-3.37.44-5.1.44-8.58,0-16.65-3.34-22.72-9.41s-9.41-14.13-9.41-22.72,3.34-16.65,9.41-22.72c0,0,0,0,0,0,0,0,0,0,0,0,6.07-6.07,14.13-9.41,22.72-9.41,1.78,0,3.53.18,5.25.46-.31-1.63-.48-3.27-.51-4.91-12.45-19.43-34.21-32.34-58.95-32.34h-227.82v145.1c11.63-23.03,29.92-42.12,52.35-54.75v-31.8h0v-6.2h53.47s30.24,0,30.24,0h91.76c9.72,0,17.63,7.91,17.63,17.63s-7.91,17.63-17.63,17.63h-112.16c-63.77,0-115.66,51.88-115.66,115.66v16.12c0,14.45,11.72,26.17,26.17,26.17s26.17-11.72,26.17-26.17v-16.12c0-34.91,28.4-63.31,63.31-63.31h112.16c24.53,0,46.14-12.7,58.64-31.86-.11-2.5.11-5.02.66-7.5Z"/>
    <path class="st0" d="M750.31,509.49h0c-.26.26-.39.58-.39.94,0,.37.13.68.39.94.52.52,1.37.52,1.89,0,.26-.26.39-.58.39-.94s-.13-.68-.39-.94-.58-.39-.94-.39-.68.13-.94.39Z"/>
  </g>
  <g>
    <path class="st0" d="M809.01,430.26c-.45.45-.87.93-1.26,1.46-4.56,6.05-3.35,14.65,2.7,19.2,2.79,2.1,5.46,4.43,7.96,6.92,29.2,29.2,29.19,76.7,0,105.89-2.6,2.6-5.4,5.02-8.32,7.19-6.08,4.52-7.33,13.11-2.81,19.19,4.52,6.07,13.11,7.33,19.19,2.81,3.98-2.97,7.8-6.26,11.33-9.8,39.89-39.89,39.89-104.79,0-144.68-3.39-3.39-7.04-6.56-10.84-9.43-5.53-4.17-13.18-3.52-17.94,1.24Z"/>
    <path class="st0" d="M842.4,396.17c-.3.3-.6.63-.88.96-4.83,5.83-4.02,14.48,1.82,19.31,2.97,2.46,5.87,5.1,8.61,7.84,47.7,47.7,47.7,125.3,0,173-2.77,2.77-5.7,5.44-8.7,7.91-5.84,4.83-6.66,13.47-1.84,19.31,4.82,5.84,13.47,6.66,19.31,1.84,3.67-3.03,7.24-6.28,10.63-9.67,58.39-58.39,58.39-153.4,0-211.79-3.35-3.35-6.88-6.57-10.52-9.57-5.5-4.55-13.49-4.09-18.43.85Z"/>
    <path class="st0" d="M775.4,463.69c-.95.95-1.78,2.07-2.44,3.32-3.52,6.7-.94,15,5.76,18.52,2.53,1.33,4.85,3.04,6.9,5.09,11.12,11.12,11.12,29.21,0,40.33-2.11,2.11-4.5,3.86-7.12,5.2-6.73,3.46-9.38,11.74-5.91,18.47,3.47,6.73,11.74,9.38,18.47,5.91,5.14-2.65,9.84-6.08,13.95-10.2,21.81-21.81,21.81-57.3,0-79.11-4.01-4.01-8.56-7.36-13.54-9.98-5.45-2.86-11.94-1.7-16.07,2.44Z"/>
    <circle class="st0" cx="751.25" cy="510.44" r="16.73"/>
  </g>
</svg>