<?xml version="1.0" encoding="UTF-8"?>
<svg id="Camada_1" xmlns="http://www.w3.org/2000/svg" version="1.1" viewBox="0 0 3017 1228">
  <!-- Generator: Adobe Illustrator 30.1.0, SVG Export Plug-In . SVG Version: 2.1.1 Build 136)  -->
  <defs>
    <style>
      .st0, .st1 {
        stroke: #326df5;
      }

      .st0, .st1, .st2, .st3 {
        fill: none;
        stroke-linecap: round;
        stroke-linejoin: round;
      }

      .st0, .st3 {
        stroke-width: 10px;
      }

      .st4 {
        fill: #326df5;
      }

      .st1, .st2 {
        stroke-width: 36px;
      }

      .st2, .st3 {
        stroke: #00b8e0;
      }

      .st5 {
        fill: #00b8e0;
      }

      .st6 {
        fill: #d9d9d9;
      }
    </style>
  </defs>
  <path class="st0" d="M744,603.75v-94c0-53.29,43.21-96.5,96.5-96.5s96.5,43.21,96.5,96.5v203.5"/>
  <path class="st3" d="M937,684.5v410.96c0,26.79,21.71,48.5,48.5,48.5s48.5-21.71,48.5-48.5v-230.96c0-27.61,22.39-50,50-50h103"/>
  <path class="st1" d="M889,553.5v455.38c0,26.79,21.71,48.5,48.5,48.5s48.5-21.71,48.5-48.5v-143.38c0-55.23,44.77-100,100-100h22.5"/>
  <path class="st2" d="M1231.5,425.5h-197.5c-13.25,0-24,10.74-24,24s10.75,24,24,24h170"/>
  <path class="st1" d="M501,326.5v-34c0-13.53-10.97-24.5-24.5-24.5s-24.5,10.97-24.5,24.5v281.5"/>
  <path class="st0" d="M793.1,606.25v37.2c0,94.19-76.36,170.55-170.55,170.55s-170.55-76.36-170.55-170.55v-69.45"/>
  <path class="st1" d="M501.05,314.5v330.5c0,67.1,54.4,121.5,121.5,121.5s121.5-54.4,121.5-121.5v-71"/>
  <path class="st1" d="M793.1,614v-102.8c0-26.48,21.47-47.95,47.95-47.95s47.95,21.47,47.95,47.95v233.05"/>
  <path class="st1" d="M889,661v166.5"/>
  <path class="st2" d="M841,512.39v130.41c0,120.79-98.04,218.7-219,218.7s-219-97.91-219-218.7v-327.3"/>
  <path class="st5" d="M2710.73,715.49c0,1.92-.71,3.57-2.11,4.95-1.41,1.38-3.09,2.07-5.05,2.07s-3.65-.69-5.05-2.07c-1.41-1.38-2.11-3.03-2.11-4.95s.7-3.57,2.11-4.95c1.4-1.38,3.09-2.07,5.05-2.07,1.3,0,2.49.33,3.58.97,1.08.62,1.96,1.47,2.62,2.53.64,1.04.96,2.21.96,3.51Z"/>
  <path class="st5" d="M2673.98,692.49h36.75v9.2h-61.09v-8.88h9.54v-.78c-3.1-1.4-5.59-3.53-7.48-6.39-1.9-2.86-2.86-6.55-2.86-11.07,0-4.05.85-7.6,2.55-10.64,1.67-3.04,4.21-5.4,7.63-7.09,3.4-1.69,7.69-2.53,12.89-2.53h38.82v9.2h-38.18c-4.8,0-8.54,1.22-11.22,3.66-2.71,2.44-4.06,5.79-4.06,10.05,0,2.93.65,5.56,1.95,7.87,1.3,2.29,3.2,4.09,5.69,5.42,2.49,1.33,5.51,1.99,9.07,1.99Z"/>
  <path class="st5" d="M2712,612.4c0,5.77-1.3,10.74-3.9,14.93-2.62,4.16-6.28,7.37-10.97,9.63-4.72,2.23-10.21,3.35-16.47,3.35s-11.77-1.12-16.55-3.35c-4.8-2.26-8.53-5.4-11.21-9.43-2.71-4.05-4.06-8.78-4.06-14.19,0-3.12.53-6.2,1.59-9.23,1.06-3.04,2.79-5.81,5.17-8.3,2.36-2.49,5.49-4.48,9.39-5.96,3.9-1.48,8.7-2.22,14.4-2.22h3.97v46.14h-8.11v-36.79c-3.45,0-6.52.68-9.23,2.03-2.7,1.33-4.84,3.22-6.4,5.69-1.57,2.44-2.35,5.33-2.35,8.65,0,3.66.93,6.83,2.79,9.51,1.83,2.65,4.21,4.69,7.16,6.12,2.94,1.43,6.09,2.14,9.46,2.14h5.41c4.61,0,8.53-.78,11.73-2.34,3.19-1.58,5.61-3.78,7.28-6.59,1.65-2.8,2.47-6.07,2.47-9.78,0-2.42-.35-4.6-1.04-6.55-.71-1.97-1.77-3.68-3.18-5.1-1.43-1.43-3.21-2.53-5.33-3.31l2.55-8.89c3.07.93,5.78,2.51,8.11,4.72,2.31,2.21,4.11,4.94,5.41,8.18,1.27,3.25,1.91,6.9,1.91,10.95Z"/>
  <path class="st5" d="M2649.64,547.59h7.95v31.02h-7.95v-31.02ZM2635,569.57v-9.2h58.23c2.65,0,4.64-.38,5.96-1.13,1.3-.78,2.18-1.77,2.63-2.96.42-1.22.63-2.51.63-3.86,0-1.01-.05-1.84-.15-2.49-.14-.65-.24-1.17-.32-1.56l8.43-1.87c.24.62.48,1.49.72,2.61.26,1.12.39,2.53.39,4.25,0,2.6-.57,5.14-1.71,7.64-1.14,2.47-2.87,4.52-5.21,6.16-2.33,1.61-5.27,2.42-8.83,2.42h-60.77Z"/>
  <path class="st4" d="M1642,546.5v28.47h-46.88v147.53h-35.24v-147.53h-46.88v-28.47h129Z"/>
  <path class="st4" d="M1698.92,575.21v44.09h56.86v27.93h-56.86v46.57h64.08v28.71h-98v-176h98v28.71h-64.08Z"/>
  <path class="st4" d="M1831.39,694.53h51.61v27.97h-83v-176h31.39v148.03Z"/>
  <path class="st4" d="M1940.61,575.21v44.09h58.02v27.93h-58.02v46.57h65.39v28.71h-100v-176h100v28.71h-65.39Z"/>
  <path class="st4" d="M2039.38,589.11c7.58-13.42,17.92-23.84,31.09-31.35,13.17-7.51,27.86-11.26,44.2-11.26,19.1,0,35.86,4.93,50.2,14.81,14.34,9.87,24.41,23.56,30.13,41.01h-39.44c-3.93-8.2-9.45-14.39-16.55-18.49-7.1-4.1-15.31-6.19-24.61-6.19-9.93,0-18.83,2.36-26.55,7.02-7.79,4.73-13.79,11.33-18.13,19.88-4.35,8.55-6.49,18.63-6.49,30.1s2.14,21.34,6.49,30.03c4.34,8.62,10.34,15.29,18.13,20.02,7.72,4.66,16.62,7.02,26.55,7.02,9.3,0,17.51-2.08,24.61-6.32,7.1-4.17,12.62-10.43,16.55-18.63h39.44c-5.72,17.59-15.72,31.35-29.99,41.08-14.28,9.8-31.1,14.67-50.34,14.67-16.34,0-31.1-3.75-44.2-11.26-13.17-7.51-23.51-17.93-31.09-31.21-7.59-13.35-11.38-28.5-11.38-45.46s3.79-31.98,11.38-45.46Z"/>
  <path class="st4" d="M2268.11,711.2c-13.52-7.56-24.25-18.02-32.19-31.4-7.95-13.38-11.92-28.49-11.92-45.4s3.97-31.82,11.92-45.2c7.94-13.38,18.67-23.85,32.19-31.4,13.52-7.56,28.36-11.3,44.53-11.3s31.22,3.81,44.67,11.3c13.45,7.56,24.11,18.02,31.91,31.4,7.81,13.38,11.78,28.42,11.78,45.2s-3.9,32.03-11.78,45.4c-7.87,13.38-18.53,23.85-32.05,31.4-13.52,7.56-28.36,11.3-44.53,11.3s-31.01-3.74-44.53-11.3ZM2340.16,684.72c7.95-4.64,14.08-11.37,18.54-20.03,4.46-8.66,6.69-18.78,6.69-30.29s-2.23-21.56-6.69-30.15c-4.46-8.6-10.66-15.25-18.54-19.83-7.94-4.58-17.07-6.93-27.45-6.93s-19.58,2.29-27.6,6.93c-8.01,4.58-14.21,11.23-18.67,19.83-4.46,8.6-6.69,18.65-6.69,30.15s2.23,21.56,6.69,30.29,10.66,15.39,18.67,20.03c8.02,4.71,17.22,7,27.6,7s19.51-2.36,27.45-7Z"/>
  <path class="st4" d="M2610,546.5v176h-34.75v-114.52l-46.43,114.52h-26.36l-46.71-114.52v114.52h-34.75v-176h39.51l55.16,130.92,55.17-130.92h39.16Z"/>
  <rect class="st6" x="1108" y="417.5" width="9" height="12"/>
  <rect class="st6" x="1195" y="836.5" width="9" height="12"/>
  <rect class="st6" x="1183" y="935.5" width="12" height="9"/>
  <rect class="st6" x="1392" y="634.5" width="12" height="9"/>
  <path class="st2" d="M1401.1,577.62c8.63,20.4,13.4,42.84,13.4,66.39s-4.77,45.98-13.4,66.39-21.12,38.78-36.55,54.21-33.81,27.92-54.21,36.55-42.84,13.4-66.38,13.4h-75.95"/>
  <path class="st3" d="M1310.33,486.85c20.4,8.63,38.78,21.12,54.21,36.55s27.92,33.81,36.55,54.21"/>
  <path class="st3" d="M1206.75,473.45h37.2c23.55,0,45.98,4.77,66.38,13.4"/>
  <path class="st2" d="M1212.7,425.5h30.8c120.67,0,218.5,97.83,218.5,218.5"/>
  <path class="st2" d="M1237,765.5h-130"/>
  <path class="st2" d="M1079.62,522.5h165.88c67.1,0,121.5,54.4,121.5,121.5s-54.4,121.5-121.5,121.5h-8.5"/>
</svg>