<?xml version="1.0" encoding="UTF-8"?>
<svg id="Camada_1" xmlns="http://www.w3.org/2000/svg" version="1.1" viewBox="0 0 1080 1080">
  <!-- Generator: Adobe Illustrator 30.2.1, SVG Export Plug-In . SVG Version: 2.1.1 Build 1)  -->
  <defs>
    <style>
      .st0 {
        fill: #fff;
      }

      .st1 {
        opacity: .5;
      }
    </style>
  </defs>
  <path class="st0" d="M413.69,425.34c-17.22,0-31.19,13.96-31.19,31.19v83.68c0,62.62-50.94,113.56-113.56,113.56-62.62,0-113.56-50.95-113.56-113.56v-84.52c0-17.22-13.96-31.19-31.19-31.19s-31.19,13.96-31.19,31.19v84.52c0,97.01,78.92,175.93,175.93,175.93,97.01,0,175.93-78.92,175.93-175.93v-83.68c0-17.22-13.96-31.19-31.19-31.19Z"/>
  <g>
    <g>
      <path class="st0" d="M573.39,633.68h1.31v11.43h6.66v1.31h-6.66v31.15h-1.31s0-31.15,0-31.15h-6.66v-1.31h6.66v-11.43Z"/>
      <polygon class="st0" points="577.64 680.51 570.44 680.51 570.44 649.37 563.78 649.37 563.78 642.17 570.44 642.17 570.44 630.73 577.64 630.73 577.64 642.17 584.3 642.17 584.3 649.37 577.64 649.37 577.64 680.51"/>
    </g>
    <g>
      <path class="st0" d="M610.97,644.37c3.48,0,6.63.97,9.46,2.91,2.83,1.94,4.89,4.46,6.18,7.56.61,1.49.99,3.04,1.14,4.64.06.38.04.61-.07.68-.1.07-.39.11-.85.11-.15,0-.25,0-.31,0h-31.06c-.03.32-.05.64-.05.96,0,1.29.16,2.56.48,3.81v.13c.9,3.39,2.75,6.17,5.54,8.35,2.79,2.18,5.96,3.26,9.53,3.26,2.86,0,5.49-.71,7.89-2.13,2.39-1.42,4.26-3.31,5.61-5.67l.75,1.27c-1.52,2.42-3.53,4.34-6.05,5.74-2.51,1.4-5.24,2.1-8.19,2.1-3.88,0-7.35-1.2-10.38-3.59-3.04-2.39-5.02-5.43-5.96-9.11,0-.03,0-.06-.02-.09-.02-.03-.02-.06-.02-.09-.32-1.29-.48-2.61-.48-3.99,0-3.04.75-5.86,2.26-8.45,1.5-2.6,3.55-4.65,6.16-6.16,2.6-1.51,5.42-2.26,8.45-2.26ZM610.97,645.68c-3.88,0-7.28,1.27-10.19,3.81-2.91,2.54-4.64,5.7-5.19,9.46h30.8c-.23-1.43-.64-2.8-1.23-4.12-1.23-2.74-3.12-4.96-5.67-6.64-2.56-1.68-5.4-2.52-8.52-2.52Z"/>
      <path class="st0" d="M610.97,681.04c-4.54,0-8.65-1.42-12.2-4.22-3.54-2.79-5.89-6.39-6.98-10.69-.03-.1-.06-.2-.08-.31l-.02-.06c-.35-1.46-.53-2.98-.53-4.52,0-3.55.89-6.89,2.65-9.93,1.76-3.04,4.19-5.47,7.23-7.23,3.04-1.76,6.38-2.65,9.93-2.65,4.06,0,7.81,1.15,11.13,3.43,3.3,2.26,5.73,5.24,7.23,8.86.72,1.73,1.17,3.56,1.34,5.43.27,2-.69,3-1.29,3.43-.78.57-1.69.65-2.55.65h-2.34l4.16,7.1-.95,1.51c-1.78,2.84-4.17,5.11-7.11,6.75-2.94,1.64-6.18,2.48-9.63,2.48ZM598.85,664.77c.77,2.61,2.21,4.72,4.41,6.43,2.28,1.78,4.8,2.64,7.72,2.64,2.35,0,4.44-.56,6.39-1.71,1.96-1.16,3.45-2.67,4.55-4.59l2.45-4.32h-25.84c.06.37.14.74.23,1.1l.09.46ZM629.86,661.9h.02s-.02,0-.02,0ZM599.47,656.01h23c-1-2.23-2.5-3.98-4.59-5.35-2.08-1.37-4.34-2.03-6.9-2.03-3.18,0-5.88,1.01-8.25,3.08-1.45,1.27-2.53,2.69-3.25,4.31Z"/>
    </g>
    <g>
      <path class="st0" d="M640.68,633.76h1.31v43.81s-1.31,0-1.31,0v-43.81Z"/>
      <rect class="st0" x="637.73" y="630.82" width="7.2" height="49.69"/>
    </g>
    <g>
      <path class="st0" d="M671.74,644.37c3.48,0,6.63.97,9.46,2.91,2.83,1.94,4.89,4.46,6.18,7.56.61,1.49.99,3.04,1.14,4.64.06.38.04.61-.07.68-.1.07-.39.11-.85.11h-.31s-31.06,0-31.06,0c-.03.32-.05.64-.05.96,0,1.29.16,2.56.48,3.81v.13c.9,3.39,2.75,6.17,5.54,8.35,2.79,2.18,5.96,3.26,9.53,3.26,2.86,0,5.49-.71,7.89-2.13,2.39-1.42,4.26-3.31,5.61-5.67l.75,1.27c-1.52,2.42-3.53,4.34-6.05,5.74-2.51,1.4-5.24,2.1-8.19,2.1-3.88,0-7.35-1.2-10.38-3.59-3.04-2.39-5.02-5.43-5.96-9.11,0-.03,0-.06-.02-.09-.02-.03-.02-.06-.02-.09-.32-1.29-.48-2.61-.48-3.99,0-3.04.75-5.86,2.26-8.45,1.5-2.6,3.55-4.65,6.16-6.16,2.6-1.51,5.42-2.26,8.45-2.26ZM671.74,645.68c-3.88,0-7.28,1.27-10.19,3.81-2.91,2.54-4.64,5.7-5.19,9.46h30.8c-.23-1.43-.64-2.8-1.23-4.12-1.23-2.74-3.12-4.96-5.67-6.64-2.56-1.68-5.4-2.52-8.52-2.52Z"/>
      <path class="st0" d="M671.74,681.04c-4.54,0-8.65-1.42-12.2-4.22-3.53-2.78-5.88-6.36-6.97-10.65-.04-.12-.07-.25-.09-.37v-.04c-.36-1.46-.54-2.98-.54-4.52,0-3.55.89-6.89,2.65-9.93,1.76-3.04,4.19-5.47,7.23-7.23,3.04-1.76,6.38-2.65,9.93-2.65,4.06,0,7.81,1.15,11.13,3.43,3.3,2.26,5.73,5.24,7.23,8.86.72,1.73,1.17,3.56,1.35,5.43.27,2-.69,3-1.3,3.43-.78.57-1.69.65-2.55.65h-2.34s4.16,7.1,4.16,7.1l-.95,1.51c-1.77,2.83-4.17,5.1-7.11,6.75-2.94,1.64-6.18,2.48-9.63,2.48ZM659.61,664.77c.77,2.61,2.21,4.72,4.41,6.43,2.28,1.78,4.8,2.64,7.72,2.64,2.35,0,4.44-.56,6.39-1.71,1.96-1.16,3.45-2.67,4.55-4.59l2.45-4.32h-25.83c.06.37.14.74.23,1.1l.09.46ZM690.62,661.9h.01-.01ZM660.24,656.01h23c-1-2.23-2.5-3.98-4.59-5.35-2.08-1.37-4.34-2.03-6.9-2.03-3.18,0-5.88,1.01-8.25,3.08-1.45,1.27-2.53,2.69-3.25,4.31Z"/>
    </g>
    <g>
      <path class="st0" d="M718.22,644.37c2.98,0,5.74.72,8.28,2.17,2.54,1.45,4.57,3.38,6.09,5.81l-.79,1.31c-1.34-2.42-3.22-4.36-5.63-5.81-2.41-1.45-5.06-2.17-7.95-2.17-2.8,0-5.4.69-7.8,2.08-2.39,1.39-4.29,3.28-5.67,5.67-1.39,2.4-2.08,5-2.08,7.82s.69,5.42,2.08,7.8c1.39,2.38,3.28,4.26,5.67,5.65,2.39,1.39,4.99,2.08,7.8,2.08s5.55-.73,7.97-2.19c2.42-1.46,4.31-3.4,5.65-5.83l.74,1.31c-1.49,2.45-3.51,4.4-6.07,5.85-2.56,1.45-5.32,2.17-8.3,2.17s-5.86-.75-8.45-2.26c-2.6-1.5-4.65-3.55-6.16-6.13-1.51-2.58-2.26-5.4-2.26-8.45,0-3.05.75-5.88,2.26-8.48,1.5-2.6,3.55-4.65,6.16-6.16,2.6-1.51,5.42-2.26,8.45-2.26Z"/>
      <path class="st0" d="M718.22,681.04c-3.55,0-6.89-.89-9.93-2.65-3.03-1.75-5.46-4.18-7.22-7.2-1.76-3.03-2.66-6.37-2.66-9.93s.89-6.91,2.65-9.95c1.76-3.04,4.19-5.47,7.23-7.23,3.04-1.76,6.38-2.65,9.93-2.65s6.76.86,9.73,2.55c2.96,1.69,5.36,3.98,7.13,6.8l.96,1.53-4.34,7.24-2.48-4.47c-1.1-1.98-2.59-3.52-4.57-4.71-1.96-1.17-4.06-1.75-6.44-1.75-2.3,0-4.37.55-6.32,1.68-1.96,1.14-3.47,2.65-4.6,4.6-1.13,1.96-1.68,4.03-1.68,6.35,0,2.31.55,4.38,1.68,6.32,1.14,1.95,2.64,3.45,4.61,4.58,1.96,1.14,4.02,1.69,6.32,1.69s4.48-.58,6.45-1.77c2-1.2,3.5-2.75,4.6-4.73l2.55-4.6,4.18,7.4-.89,1.47c-1.74,2.88-4.14,5.19-7.13,6.88-2.99,1.69-6.27,2.55-9.75,2.55Z"/>
    </g>
    <g>
      <path class="st0" d="M753.75,646.64c2.6-1.52,5.42-2.28,8.48-2.28,3.05,0,5.87.75,8.45,2.26,2.58,1.5,4.63,3.56,6.13,6.16,1.5,2.6,2.26,5.42,2.26,8.48,0,3.05-.75,5.87-2.26,8.45-1.51,2.58-3.55,4.63-6.13,6.13-2.58,1.51-5.4,2.26-8.45,2.26s-5.88-.75-8.48-2.26c-2.6-1.5-4.65-3.55-6.16-6.13-1.51-2.58-2.26-5.4-2.26-8.45s.75-5.88,2.26-8.48c1.5-2.6,3.55-4.64,6.16-6.13ZM770,647.78c-2.37-1.4-4.96-2.1-7.78-2.1s-5.43.69-7.82,2.08c-2.39,1.39-4.29,3.28-5.67,5.67-1.39,2.4-2.08,5-2.08,7.82s.69,5.42,2.08,7.8c1.39,2.38,3.28,4.26,5.67,5.65,2.39,1.39,5,2.08,7.82,2.08s5.42-.69,7.8-2.08c2.38-1.39,4.26-3.27,5.65-5.65,1.39-2.38,2.08-4.98,2.08-7.8s-.69-5.42-2.08-7.82c-1.39-2.39-3.28-4.28-5.67-5.65Z"/>
      <path class="st0" d="M762.22,681.04c-3.57,0-6.92-.89-9.95-2.65-3.03-1.75-5.47-4.18-7.22-7.2-1.76-3.02-2.66-6.37-2.66-9.93,0-3.56.89-6.91,2.65-9.95,1.76-3.04,4.19-5.46,7.23-7.2,3.04-1.77,6.39-2.67,9.95-2.67,3.56,0,6.91.89,9.93,2.66,3.02,1.76,5.44,4.19,7.2,7.22,1.76,3.04,2.65,6.39,2.65,9.95,0,3.56-.89,6.9-2.66,9.93-1.76,3.02-4.18,5.44-7.2,7.2-3.02,1.76-6.37,2.66-9.93,2.66ZM762.22,648.62c-2.31,0-4.39.55-6.35,1.68-1.96,1.14-3.47,2.64-4.6,4.6-1.13,1.96-1.69,4.03-1.69,6.35,0,2.31.55,4.37,1.68,6.32,1.14,1.95,2.64,3.45,4.6,4.58,1.96,1.14,4.03,1.69,6.35,1.69s4.38-.55,6.32-1.68c1.95-1.14,3.45-2.64,4.59-4.59,1.13-1.94,1.68-4.01,1.68-6.32s-.55-4.39-1.68-6.35c-1.13-1.95-2.63-3.45-4.59-4.57l-.03-.02c-1.92-1.14-3.98-1.69-6.28-1.69Z"/>
    </g>
    <g>
      <path class="st0" d="M805.4,644.32c1.31,0,2.58.21,3.81.61,2.04.7,3.74,1.85,5.08,3.46.93,1.14,1.67,2.44,2.19,3.9.85-1.75,1.99-3.26,3.42-4.51,2.02-1.75,4.34-2.85,6.97-3.28.76-.12,1.52-.18,2.28-.18,1.34,0,2.61.21,3.81.61,2.04.7,3.74,1.85,5.08,3.46,1.31,1.55,2.21,3.39,2.67,5.52.32,1.4.48,3.4.48,6v17.65h-1.31v-17.65c0-2.48-.15-4.38-.44-5.7-.44-1.93-1.23-3.58-2.37-4.95-1.23-1.46-2.73-2.48-4.51-3.07-1.75-.58-3.58-.73-5.48-.44-2.39.41-4.5,1.4-6.31,2.98-1.75,1.55-2.99,3.45-3.72,5.7.23,1.29.35,3.11.35,5.48v17.65h-1.31v-17.65c0-2.48-.13-4.38-.39-5.7-.44-1.96-1.24-3.61-2.41-4.95-1.2-1.46-2.69-2.48-4.47-3.07-1.75-.58-3.58-.73-5.48-.44-2.39.41-4.5,1.4-6.31,2.98-1.75,1.55-2.99,3.43-3.72,5.65v23.18h-1.31v-32.42h1.31v6.05c.79-1.29,1.74-2.42,2.85-3.42,2.02-1.75,4.34-2.85,6.97-3.28.76-.12,1.52-.18,2.28-.18Z"/>
      <path class="st0" d="M844.13,680.51h-7.2v-20.6c0-2.8-.2-4.3-.37-5.06-.33-1.47-.91-2.68-1.76-3.71-.86-1.03-1.9-1.74-3.16-2.15-1.33-.44-2.67-.55-4.11-.33-1.82.31-3.42,1.06-4.82,2.29-1.19,1.05-2.05,2.29-2.63,3.76.18,1.36.27,3.07.27,5.19v20.6h-7.2v-20.6c0-2.84-.18-4.35-.34-5.12-.32-1.42-.89-2.61-1.75-3.59-.9-1.09-1.91-1.79-3.16-2.2-1.33-.44-2.67-.55-4.11-.33-1.82.31-3.42,1.06-4.82,2.29-1.24,1.1-2.14,2.39-2.71,3.93v25.62h-7.2v-38.3h7.2v1.83c1.94-1.25,4.07-2.06,6.39-2.45,2.65-.41,5.13-.24,7.5.55,2.57.88,4.72,2.35,6.41,4.37.07.08.13.16.19.24.38-.41.79-.8,1.21-1.18,2.44-2.12,5.27-3.45,8.42-3.98,2.69-.41,5.21-.23,7.52.55,2.55.88,4.7,2.34,6.39,4.36,1.61,1.89,2.72,4.18,3.29,6.78.37,1.61.55,3.79.55,6.63v20.6Z"/>
    </g>
  </g>
  <g>
    <path class="st0" d="M797.78,542.53c-1.99.32-4.02.52-6.07.52-10.23,0-19.84-3.98-27.07-11.21-7.23-7.23-11.21-16.84-11.21-27.07s3.98-19.84,11.21-27.07c0,0,0,0,0,0,0,0,0,0,0,0,7.23-7.23,16.84-11.21,27.07-11.21,2.12,0,4.21.21,6.26.55-.37-1.94-.57-3.9-.61-5.85-14.83-23.15-40.76-38.53-70.23-38.53h-271.45v172.88c13.86-27.44,35.65-50.19,62.37-65.23v-37.89h0v-7.39h63.71s36.04,0,36.04,0h109.33c11.58,0,21.01,9.43,21.01,21.01s-9.43,21.01-21.01,21.01h-133.64c-75.99,0-137.81,61.82-137.81,137.81v19.21c0,17.22,13.96,31.19,31.19,31.19s31.19-13.96,31.19-31.19v-19.21c0-41.6,33.84-75.44,75.43-75.44h133.64c29.23,0,54.98-15.13,69.87-37.96-.13-2.98.13-5.98.78-8.94Z"/>
    <path class="st0" d="M790.58,503.65h0c-.31.31-.46.69-.46,1.13,0,.44.16.81.46,1.12.62.62,1.63.62,2.25,0,.31-.31.47-.69.47-1.13s-.16-.81-.46-1.12-.69-.47-1.13-.47-.81.16-1.12.46Z"/>
  </g>
  <g class="st1">
    <g>
      <path class="st0" d="M860.53,409.24c-.54.54-1.04,1.11-1.51,1.73-5.43,7.21-3.99,17.45,3.21,22.88,3.32,2.5,6.51,5.28,9.48,8.25,34.79,34.79,34.79,91.39,0,126.17-3.09,3.09-6.43,5.98-9.91,8.57-7.24,5.38-8.74,15.63-3.35,22.86,5.39,7.24,15.63,8.74,22.86,3.35,4.75-3.53,9.29-7.46,13.5-11.67,47.53-47.53,47.53-124.86,0-172.39-4.04-4.04-8.38-7.82-12.92-11.24-6.58-4.96-15.71-4.19-21.38,1.48Z"/>
      <path class="st0" d="M900.32,368.63c-.36.36-.71.75-1.04,1.15-5.75,6.95-4.79,17.25,2.17,23.01,3.54,2.93,6.99,6.08,10.26,9.34,56.83,56.83,56.83,149.3,0,206.13-3.31,3.31-6.79,6.48-10.37,9.43-6.96,5.75-7.94,16.05-2.19,23,5.75,6.96,16.05,7.94,23,2.19,4.37-3.61,8.63-7.48,12.66-11.52,69.57-69.57,69.57-182.77,0-252.35-3.99-3.99-8.2-7.82-12.53-11.41-6.55-5.42-16.07-4.87-21.96,1.02Z"/>
      <path class="st0" d="M820.48,449.07c-1.14,1.14-2.12,2.46-2.91,3.96-4.2,7.99-1.12,17.87,6.86,22.06,3.01,1.58,5.78,3.63,8.23,6.07,13.25,13.25,13.25,34.8,0,48.05-2.51,2.51-5.36,4.6-8.48,6.2-8.02,4.13-11.18,13.98-7.05,22.01,4.13,8.02,13.98,11.18,22.01,7.05,6.13-3.15,11.72-7.24,16.63-12.15,25.99-25.99,25.99-68.28,0-94.26-4.77-4.77-10.2-8.77-16.13-11.89-6.49-3.41-14.23-2.02-19.15,2.9Z"/>
      <circle class="st0" cx="791.7" cy="504.78" r="19.93"/>
    </g>
  </g>
</svg>